# xmcd
#
# Track frame offsets:
#	150
#	30697
#	43082
#	66132
#	94088
#	124523
#	142716
#	159716
#	174173
#	190465
#	205803
#	221970
#	247336
#	263471
#	288106
#	304139
#	322318
#
# Disc length: 4542
#
# Revision: 3
# Processed by: cddbd v1.5.1PL0 Copyright (c) Steve Scherf et al.
# Submitted via: CDex 1.51
# Normalized: r2:DSETVAR1,TDELIM( - )
#
DISCID=fd11bc11
DTITLE=Various Artist - LateNightTales - Turin Breaks
DYEAR=2004
DGENRE=Electronic
TTITLE0=Nicolai Dungar - Last Night I Dreamt Of Mississippi
TTITLE1=John Barry - Midnight Cowboy
TTITLE2=Silver Jews - Send In The Clouds
TTITLE3=Les Barons feat. Henri Gao-Bi - Lagos Soundsystem
TTITLE4=Grant Green - A Walk In The Night
TTITLE5=G. Love and Special Sauce - Blues Music (Album Version)
TTITLE6=John Hammond - Dreamy Eyed Girl
TTITLE7=Chris Whitley - Breaking Your Fall
TTITLE8=Dave Palmer - Speed Trials
TTITLE9=J.J. Cale - Magnolia
TTITLE10=Talk Talk - I Believe In You
TTITLE11=Al Di Meola feat. John McLaughlin - Short Tales Of The Black Forest
TTITLE12=Smog - Cold Blooded Old Times
TTITLE13=Gillian Welch - One And Only
TTITLE14=Jessica Lauren - A Pearl For Iona
TTITLE15=Turin Breaks - Moonlight Mile
TTITLE16=Written by Patrick Neate, Read by Brian Blessed - The White City Part 4
EXTD=YEAR: 2004
EXTT0=
EXTT1=
EXTT2=
EXTT3=
EXTT4=
EXTT5=
EXTT6=
EXTT7=
EXTT8=
EXTT9=
EXTT10=
EXTT11=
EXTT12=
EXTT13=
EXTT14=
EXTT15=
EXTT16=
PLAYORDER=
